# xmcd
#
# Track frame offsets:
#	150
#	16161
#	28991
#	42881
#	54731
#	64495
#	73780
#	83919
#	97771
#	112981
#	126128
#	142084
#
# Disc length: 2082 seconds
#
# Revision: 2
# Processed by: cddbd v1.5.1PL0 Copyright (c) Steve Scherf et al.
# Submitted via: EasyCDDAExtractor 8.1.2.3
#
DISCID=a808200c
DTITLE=Various Artist - volumen11
DYEAR=2000
DGENRE=Other
TTITLE0=trocha angosta-te quiero pero me arrepiento - AudioTrack 01
TTITLE1=abracadabra-domingo en buenos aires - AudioTrack 02
TTITLE2=banana-oh,maria,que me has hecho - AudioTrack 03
TTITLE3=pintura fresca-chewy,chewy - AudioTrack 04
TTITLE4=lechuga-que bien que lo haces - AudioTrack 05
TTITLE5=los rebeldes del rock-la bamba - AudioTrack 06
TTITLE6=kingston karachi-bailando mali -kivu - AudioTrack 07
TTITLE7=santiago elizalde-viejas fotos - AudioTrack 08
TTITLE8=estela raval-eres tu - AudioTrack 09
TTITLE9=sergio denis-como estas,querida - AudioTrack 10
TTITLE10=roberto vicario-estar enamorados amigos - AudioTrack 11
TTITLE11=c j beltran-ayer aun - AudioTrack 12
EXTD=
EXTT0=
EXTT1=
EXTT2=
EXTT3=
EXTT4=
EXTT5=
EXTT6=
EXTT7=
EXTT8=
EXTT9=
EXTT10=
EXTT11=
PLAYORDER=
